<svg width="24" height="24" viewBox="0 0 24 24" fill="none" xmlns="http://www.w3.org/2000/svg">
<path fill-rule="evenodd" clip-rule="evenodd" d="M2 12C2 6.5 6.5 2 12 2C17.5 2 22 6.5 22 12C22 17.5 17.5 22 12 22C6.5 22 2 17.5 2 12ZM6.40039 17.2001H8.90039V9.1001H6.40039V17.2001ZM7.70039 8.1001C6.90039 8.1001 6.40039 7.5001 6.40039 6.8001C6.40039 6.1001 6.90039 5.6001 7.70039 5.6001C8.50039 5.6001 9.00039 6.2001 9.00039 6.9001C9.00039 7.6001 8.50039 8.1001 7.70039 8.1001ZM15.6 17.2H18.1V12.5C18.1 10.1 16.8 9 15.2 9C13.8 9 13 9.7 12.7 10.1H12.6L12.5 9H10.3C10.4 9.8 10.4 10.6 10.4 11.6V17.1H12.9V12.5C12.9 12.3 12.9 12.1 13 11.9C13.2 11.5 13.6 11 14.3 11C15.2 11 15.6 11.7 15.6 12.7V17.2Z" fill="#804FEE"/>
</svg>
