<svg width="76" height="76" viewBox="0 0 76 76" fill="none" xmlns="http://www.w3.org/2000/svg">
<g clip-path="url(#clip0_14_87)">
<path d="M0.00011639 37.9063C0.051504 16.92 17.1077 -0.0512712 38.0939 0.00011639C59.0802 0.051504 76.0515 17.1077 76.0001 38.094C75.9487 59.0802 58.8925 76.0515 37.9063 75.9979C16.92 75.9487 -0.0512712 58.8925 0.00011639 37.9063Z" fill="white"/>
<path d="M0.00011639 37.9063C0.051504 16.92 17.1077 -0.0512712 38.0939 0.00011639C59.0802 0.051504 76.0515 17.1077 76.0001 38.094C75.9487 59.0802 58.8925 76.0515 37.9063 75.9979C16.92 75.9487 -0.0512712 58.8925 0.00011639 37.9063Z" fill="#804FEE"/>
<path d="M25.139 15.1064C23.4812 15.1064 22.1362 16.4469 22.1362 18.107C22.1362 19.767 23.4812 21.1076 25.139 21.1076C26.7968 21.1076 28.1418 19.7625 28.1418 18.107C28.1418 16.4514 26.7946 15.1064 25.139 15.1064Z" fill="white"/>
<path d="M31.7275 45.1995H39.7552V43.1105H33.8166V40.0675H39.7552V37.9785H33.8166V34.9622H39.7552V32.8732H31.7275V45.1995Z" fill="white"/>
<path d="M46.9117 32.8732H44.8205V45.1995H52.8481V43.1105H46.9117V32.8732Z" fill="white"/>
<path d="M24.0849 45.1977H26.2008V32.8691L24.0849 32.858V45.1977Z" fill="white"/>
<path d="M61.6421 32.6411C58.0718 32.6411 54.9752 35.5344 54.9752 39.1047C54.9752 42.675 58.0741 45.5684 61.6421 45.5684C65.2102 45.5684 68.3091 42.675 68.3091 39.1047C68.3091 35.5344 65.2125 32.6411 61.6421 32.6411ZM61.6421 43.4615C59.2359 43.4615 57.082 41.511 57.082 39.1047C57.082 36.6984 59.2359 34.7479 61.6421 34.7479C64.0484 34.7479 66.2022 36.6984 66.2022 39.1047C66.2022 41.511 64.0484 43.4615 61.6421 43.4615Z" fill="white"/>
<path d="M14.6636 34.7685C16.0979 34.7685 17.5748 35.4634 18.3679 36.5336L19.7465 34.8914C18.5623 33.5285 16.6118 32.6639 14.6636 32.6639C11.0932 32.6639 7.99658 35.5572 7.99658 39.1275C7.99658 42.6979 11.0955 45.5912 14.6636 45.5912C16.6074 45.5912 18.5511 44.7333 19.7375 43.3771L18.359 41.7349C17.5636 42.7962 16.0935 43.4843 14.6636 43.4843C12.2573 43.4843 10.1035 41.5338 10.1035 39.1275C10.1035 36.7213 12.2573 34.7708 14.6636 34.7708V34.7685Z" fill="white"/>
</g>
<defs>
<clipPath id="clip0_14_87">
<rect width="76" height="76" fill="white"/>
</clipPath>
</defs>
</svg>
