<svg width="24" height="24" viewBox="0 0 24 24" fill="none" xmlns="http://www.w3.org/2000/svg">
<path d="M9.25 2C4.70108 2 1 5.09719 1 8.90404C1 11.0939 2.22877 13.0443 4.13507 14.3101L3.12695 16.2796L5.79597 15.1649C6.84845 15.5733 8.01567 15.8081 9.25 15.8081C9.29318 15.8081 9.33506 15.8037 9.37808 15.8032C10.2847 17.988 12.9175 19.5739 16.0192 19.5739C16.6101 19.5739 17.1806 19.5105 17.7289 19.4023L21.5556 21L20.25 18.451C21.9179 17.4561 23 15.8937 23 14.1344C23 11.5306 20.6383 9.3502 17.4975 8.81986C17.4432 5.05183 13.7652 2 9.25 2ZM9.25 3.67371C12.7813 3.67371 15.6618 5.91284 15.7953 8.70382C12.0537 8.79693 9.04494 11.1896 9.03929 14.1262C5.52127 14.0364 2.69231 11.7315 2.69231 8.90404C2.69231 6.01982 5.63396 3.67371 9.25 3.67371ZM6.28846 5.76584C5.70419 5.76584 5.23077 6.23406 5.23077 6.81191C5.23077 7.38975 5.70419 7.85797 6.28846 7.85797C6.87273 7.85797 7.34615 7.38975 7.34615 6.81191C7.34615 6.23406 6.87273 5.76584 6.28846 5.76584ZM12.2115 5.76584C11.6273 5.76584 11.1538 6.23406 11.1538 6.81191C11.1538 7.38975 11.6273 7.85797 12.2115 7.85797C12.7958 7.85797 13.2692 7.38975 13.2692 6.81191C13.2692 6.23406 12.7958 5.76584 12.2115 5.76584ZM16.0192 10.3685C18.9355 10.3685 21.3077 12.0581 21.3077 14.1344C21.3077 16.2106 18.9355 17.9002 16.0192 17.9002C13.103 17.9002 10.7308 16.2106 10.7308 14.1344C10.7308 12.0581 13.103 10.3685 16.0192 10.3685ZM13.9038 12.0422C13.3196 12.0422 12.8462 12.5105 12.8462 13.0883C12.8462 13.6662 13.3196 14.1344 13.9038 14.1344C14.4881 14.1344 14.9615 13.6662 14.9615 13.0883C14.9615 12.5105 14.4881 12.0422 13.9038 12.0422ZM18.1346 12.0422C17.5503 12.0422 17.0769 12.5105 17.0769 13.0883C17.0769 13.6662 17.5503 14.1344 18.1346 14.1344C18.7189 14.1344 19.1923 13.6662 19.1923 13.0883C19.1923 12.5105 18.7189 12.0422 18.1346 12.0422Z" fill="#804FEE"/>
</svg>
