<svg width="24" height="24" viewBox="0 0 24 24" fill="none" xmlns="http://www.w3.org/2000/svg">
<path fill-rule="evenodd" clip-rule="evenodd" d="M22.4745 17.3523C22.9114 15.7215 22.9114 12.319 22.9114 12.319C22.9114 12.319 22.9114 8.9165 22.4745 7.28573C22.2338 6.38617 21.5254 5.67751 20.6256 5.43704C18.9949 5 12.4556 5 12.4556 5C12.4556 5 5.9165 5 4.28573 5.43704C3.386 5.67751 2.67751 6.38617 2.43704 7.28573C2 8.9165 2 12.319 2 12.319C2 12.319 2 15.7215 2.43704 17.3523C2.67751 18.2519 3.386 18.9605 4.28573 19.201C5.9165 19.638 12.4556 19.638 12.4556 19.638C12.4556 19.638 18.9949 19.638 20.6256 19.201C21.5254 18.9605 22.2338 18.2519 22.4745 17.3523ZM15.7971 12.3191L10.3643 15.4559V9.18237L15.7971 12.3191Z" fill="#804FEE"/>
</svg>
